<svg width="163" height="43" viewBox="0 0 163 43" fill="none" xmlns="http://www.w3.org/2000/svg">
<path d="M16.9989 35.2604C14.534 35.2604 12.2645 34.8696 10.1903 34.088C8.14626 33.2764 6.35769 32.1492 4.82463 30.7063C3.29157 29.2333 2.1042 27.5049 1.26252 25.5209C0.42084 23.537 0 21.3727 0 19.028C0 16.6833 0.42084 14.519 1.26252 12.535C2.1042 10.5511 3.29157 8.83764 4.82463 7.39476C6.38775 5.92182 8.20638 4.79457 10.2805 4.01301C12.3547 3.20139 14.6242 2.79558 17.0891 2.79558C19.7644 2.79558 22.1692 3.23145 24.3035 4.10319C26.4678 4.97493 28.2865 6.25248 29.7594 7.93584L26.062 11.543C24.8296 10.3106 23.4919 9.40878 22.049 8.83764C20.6362 8.23644 19.0731 7.93584 17.3596 7.93584C15.7063 7.93584 14.1733 8.20638 12.7605 8.74746C11.3476 9.28854 10.1302 10.0551 9.10818 11.047C8.08614 12.039 7.28955 13.2114 6.71841 14.5641C6.17733 15.9168 5.90679 17.4047 5.90679 19.028C5.90679 20.6212 6.17733 22.0941 6.71841 23.4468C7.28955 24.7995 8.08614 25.9869 9.10818 27.0089C10.1302 28.0009 11.3326 28.7674 12.7154 29.3085C14.0981 29.8496 15.6312 30.1201 17.3146 30.1201C18.8777 30.1201 20.3807 29.8796 21.8236 29.3987C23.2965 28.8877 24.6943 28.046 26.0169 26.8736L29.3536 31.2474C27.7003 32.57 25.7764 33.577 23.5821 34.2684C21.4177 34.9297 19.2234 35.2604 16.9989 35.2604ZM23.8075 30.4808V18.6673H29.3536V31.2474L23.8075 30.4808Z" fill="#141C23"/>
<path d="M47.8613 35.1251C45.1859 35.1251 42.8412 34.599 40.8272 33.5469C38.8433 32.4648 37.2952 30.9919 36.183 29.1281C35.1008 27.2644 34.5597 25.1452 34.5597 22.7704C34.5597 20.3656 35.0858 18.2464 36.1379 16.4128C37.22 14.549 38.693 13.0911 40.5567 12.039C42.4505 10.9869 44.5998 10.4609 47.0046 10.4609C49.3492 10.4609 51.4384 10.9719 53.2721 11.9939C55.1057 13.016 56.5486 14.4589 57.6007 16.3226C58.6528 18.1863 59.1788 20.3807 59.1788 22.9057C59.1788 23.1462 59.1638 23.4167 59.1338 23.7173C59.1338 24.0179 59.1187 24.3035 59.0887 24.574H39.0236V20.8316H56.1127L53.9033 22.0039C53.9334 20.6212 53.6478 19.4037 53.0466 18.3516C52.4454 17.2995 51.6188 16.4729 50.5667 15.8717C49.5446 15.2705 48.3573 14.9699 47.0046 14.9699C45.6218 14.9699 44.4044 15.2705 43.3523 15.8717C42.3302 16.4729 41.5186 17.3146 40.9174 18.3967C40.3463 19.4488 40.0607 20.6963 40.0607 22.1392V23.041C40.0607 24.4839 40.3914 25.7614 41.0527 26.8736C41.714 27.9859 42.6459 28.8426 43.8483 29.4438C45.0507 30.045 46.4334 30.3456 47.9965 30.3456C49.3492 30.3456 50.5667 30.1351 51.6488 29.7143C52.731 29.2935 53.6929 28.6321 54.5346 27.7303L57.5556 31.2023C56.4734 32.4648 55.1057 33.4417 53.4524 34.1331C51.8292 34.7944 49.9655 35.1251 47.8613 35.1251Z" fill="#141C23"/>
<path d="M75.4144 35.1251C72.9495 35.1251 70.7551 34.599 68.8313 33.5469C66.9074 32.4648 65.3894 30.9919 64.2772 29.1281C63.165 27.2644 62.6089 25.1452 62.6089 22.7704C62.6089 20.3656 63.165 18.2464 64.2772 16.4128C65.3894 14.549 66.9074 13.0911 68.8313 12.039C70.7551 10.9869 72.9495 10.4609 75.4144 10.4609C77.9094 10.4609 80.1188 10.9869 82.0426 12.039C83.9965 13.0911 85.5146 14.534 86.5967 16.3677C87.7089 18.2013 88.2651 20.3356 88.2651 22.7704C88.2651 25.1452 87.7089 27.2644 86.5967 29.1281C85.5146 30.9919 83.9965 32.4648 82.0426 33.5469C80.1188 34.599 77.9094 35.1251 75.4144 35.1251ZM75.4144 30.3005C76.7972 30.3005 78.0296 29.9999 79.1118 29.3987C80.1939 28.7975 81.0356 27.9257 81.6368 26.7835C82.2681 25.6412 82.5837 24.3035 82.5837 22.7704C82.5837 21.2073 82.2681 19.8697 81.6368 18.7574C81.0356 17.6152 80.1939 16.7434 79.1118 16.1422C78.0296 15.541 76.8122 15.2404 75.4595 15.2404C74.0767 15.2404 72.8443 15.541 71.7621 16.1422C70.71 16.7434 69.8683 17.6152 69.2371 18.7574C68.6058 19.8697 68.2902 21.2073 68.2902 22.7704C68.2902 24.3035 68.6058 25.6412 69.2371 26.7835C69.8683 27.9257 70.71 28.7975 71.7621 29.3987C72.8443 29.9999 74.0617 30.3005 75.4144 30.3005Z" fill="#141C23"/>
<path d="M126.201 34.8095V10.7314H131.837V34.8095H126.201ZM129.042 6.7635C127.99 6.7635 127.118 6.43284 126.426 5.77152C125.765 5.1102 125.434 4.31361 125.434 3.38175C125.434 2.41983 125.765 1.62324 126.426 0.991978C127.118 0.330659 127.99 0 129.042 0C130.094 0 130.95 0.315629 131.612 0.946888C132.303 1.54809 132.649 2.31462 132.649 3.24648C132.649 4.23846 132.318 5.08014 131.657 5.77152C130.996 6.43284 130.124 6.7635 129.042 6.7635Z" fill="#141C23"/>
<path d="M152.897 10.4609C154.821 10.4609 156.534 10.8366 158.037 11.5881C159.57 12.3396 160.773 13.4969 161.645 15.0601C162.516 16.5931 162.952 18.5771 162.952 21.0119V34.8095H157.316V21.7334C157.316 19.5991 156.805 18.0059 155.783 16.9538C154.791 15.9017 153.393 15.3757 151.589 15.3757C150.267 15.3757 149.094 15.6462 148.072 16.1873C147.05 16.7284 146.254 17.54 145.683 18.6222C145.142 19.6743 144.871 21.0119 144.871 22.6352V34.8095H139.235V10.7314H144.601V17.2244L143.654 15.2404C144.495 13.7074 145.713 12.535 147.306 11.7234C148.929 10.8817 150.793 10.4609 152.897 10.4609Z" fill="#141C23"/>
<path fill-rule="evenodd" clip-rule="evenodd" d="M106.82 6.87328C113.858 6.87332 119.563 11.8242 119.563 17.9314C119.563 23.3651 115.046 27.8829 109.094 28.8133L101.512 42.2592L95.0518 22.1786C94.4243 20.8709 94.0773 19.4363 94.0773 17.9314C94.0774 11.8241 99.7825 6.87328 106.82 6.87328ZM107.555 11.7744C103.901 11.7744 100.939 14.4075 100.939 17.6557C100.939 20.9038 103.901 23.537 107.555 23.537C111.209 23.537 114.172 20.9038 114.172 17.6557C114.172 14.4075 111.209 11.7744 107.555 11.7744Z" fill="#0066FF"/>
</svg>
